# xmcd CD database file
#
# Track frame offsets:
#	150
#	22793
#	46219
#	76773
#	92855
#	118765
#	141381
#	158111
#	179539
#	200157
#	223340
#	249628
#	264522
#	291998
#	311590
#	325944
#
# Disc length: 4500 seconds
#
# Revision: 0
# Processed by: cddbd v1.5.1PL0 Copyright (c) Steve Scherf et al.
# Submitted via: CDex 1.51
#
DISCID=f0119210
DTITLE=Various Artist - DJ Nik Volume 7
DYEAR=2005
DGENRE=Salsa
TTITLE0=Ray Barretto - Mi Ritmo Te Llaman
TTITLE1=Junior Toledo - Nina y Senora
TTITLE2=Buena Vista Next Generation - Los Herederos
TTITLE3=Ralph Robles - Mi Borinquen
TTITLE4=Francisco Aguabella - Agua Limpia Todo
TTITLE5=Son Sublime - El Venedor de Agua
TTITLE6=New Swing Sextette - Pico Swing
TTITLE7=Ruben Blades w/ Fania All Stars - A Los Muchachos de Belen
TTITLE8=Fuego 77 (canta: Frankie Vasquez)
TTITLE9=Charlie Palmieri y MelNique - El Baron
TTITLE10=Manolito y Su Trabuco - El Paso De Emcarnacion
TTITLE11=Hector Rivera - Para mi Gente
TTITLE12=Angel Caneles y Sabor - De Que Te Quejas
TTITLE13=Estrellas Ciaman - Cuban Fantasy
TTITLE14=Cabrerita - Sobra Salsa
TTITLE15=Louie Ramirez - El Titere
EXTD=YEAR: 2005
EXTT0=
EXTT1=
EXTT2=
EXTT3=
EXTT4=
EXTT5=
EXTT6=
EXTT7=
EXTT8=
EXTT9=
EXTT10=
EXTT11=
EXTT12=
EXTT13=
EXTT14=
EXTT15=
PLAYORDER=
